<?xml version="1.0" encoding="utf-8"?>
<!-- Generator: Adobe Illustrator 15.0.0, SVG Export Plug-In . SVG Version: 6.00 Build 0)  -->
<!DOCTYPE svg PUBLIC "-//W3C//DTD SVG 1.1//EN" "http://www.w3.org/Graphics/SVG/1.1/DTD/svg11.dtd">
<svg version="1.1" xmlns="http://www.w3.org/2000/svg" xmlns:xlink="http://www.w3.org/1999/xlink" x="0px" y="0px"
	 width="417.947px" height="257.968px" viewBox="0 0 417.947 257.968" enable-background="new 0 0 417.947 257.968"
	 xml:space="preserve">
<g id="cloud_1_" enable-background="new    ">
	<g id="cloud">
		<g>
			<path fill-rule="evenodd" clip-rule="evenodd" fill="#120F16" d="M23.304,170.734c-2.949,6.437-4.606,13.59-4.606,21.133
				c0,2.651,0.205,5.256,0.596,7.798h366.439c15.621-9.816,26.012-27.191,26.012-47.002c0-30.308-24.305-54.924-54.485-55.458
				c-5.104-26.731-28.591-46.94-56.81-46.94c-12.464,0-23.997,3.955-33.441,10.66c-8.208-24.907-31.648-42.892-59.305-42.892
				c-24.513,0-45.715,14.132-55.936,34.687c-8.329-4.436-17.832-6.958-27.927-6.958c-24.012,0-44.687,14.228-54.094,34.707
				c-3.47-0.72-7.065-1.101-10.749-1.101c-29.083,0-52.661,23.577-52.661,52.661C6.338,147.335,12.875,161.112,23.304,170.734z"/>
		</g>
	</g>
</g>
<g id="Thinker">
	<g>
		<path fill="#D1D7E5" d="M239.943,179.427v-14.818h-4.077v5.044h-2.444v-7.517h16.013v7.517h-2.444v-5.044h-4.063v14.818h2.572
			v2.473h-8.085v-2.473H239.943z"/>
		<path fill="#D1D7E5" d="M252.787,179.427v-14.818h-2.245v-2.473h7.559v2.473h-2.33v5.654h8.596v-5.654h-2.315v-2.473h7.559v2.473
			h-2.259v14.818h2.259v2.473h-7.559v-2.473h2.315v-6.691h-8.596v6.691h2.33v2.473h-7.559v-2.473H252.787z"/>
		<path fill="#D1D7E5" d="M273.418,179.427v-14.818h-2.131v-2.473h7.246v2.473h-2.132v14.818h2.132v2.473h-7.246v-2.473H273.418z"/>
		<path fill="#D1D7E5" d="M282.439,179.427v-14.818h-2.828v-2.473h6.747l8.669,15.362v-12.89h-2.799v-2.473h8.112v2.473h-2.912
			v17.49h-3.063l-9.483-16.869v14.197h2.827v2.473h-8.099v-2.473H282.439z"/>
		<path fill="#D1D7E5" d="M303.396,179.427v-14.818h-2.473v-2.473h7.999v2.473h-2.543v14.818h2.273v2.473h-7.729v-2.473H303.396z
			 M306.479,171.464l6.337-6.855h-2.259v-2.473h7.743v2.473h-2.104l-6.084,6.855l6.255,7.963h2.117v2.473h-8.027v-2.473h2.131
			L306.479,171.464z"/>
		<path fill="#D1D7E5" d="M321.938,179.427v-14.818h-2.558v-2.473h16.424v5.953h-2.443v-3.48h-8.439v5.882h7.346v2.473h-7.346v6.464
			h8.439v-3.594h2.443v6.066h-16.424v-2.473H321.938z"/>
		<path fill="#D1D7E5" d="M339.854,179.427v-14.818h-2.714v-2.473h8.027c1.677,0,3.008,0.131,3.993,0.391
			c0.984,0.261,1.799,0.811,2.443,1.648c0.645,0.839,0.966,1.883,0.966,3.133c0,2.614-1.357,4.257-4.073,4.93l3.491,7.189h2.415
			v2.473h-4.28l-4.5-9.235h-2.785v6.763h2.529v2.473h-8.227v-2.473H339.854z M342.837,170.193h2.33c1.128,0,1.959-0.073,2.494-0.221
			c0.535-0.146,0.973-0.445,1.314-0.895c0.341-0.45,0.511-1.054,0.511-1.812c0-0.645-0.173-1.189-0.519-1.635
			c-0.346-0.444-0.771-0.727-1.278-0.845s-1.281-0.178-2.323-0.178h-2.529V170.193z"/>
	</g>
</g>
<g id="_x2E_com">
	<g>
		<path fill="#D1D7E5" d="M362.587,181.791h-1.782v-1.782h1.782V181.791z"/>
		<path fill="#D1D7E5" d="M355.573,171.856h2.651v1.232c-0.507,0.063-0.896,0.27-1.166,0.619c-0.271,0.351-0.406,0.758-0.406,1.221
			c0,0.619,0.219,1.121,0.656,1.508c0.437,0.387,1.011,0.579,1.721,0.579c0.662,0,1.245-0.184,1.75-0.551
			c0.505-0.366,0.757-0.898,0.757-1.594c0-0.966-0.459-1.666-1.377-2.102l0.536-1.138c1.396,0.629,2.095,1.728,2.095,3.297
			c0,1.111-0.38,1.985-1.138,2.623c-0.759,0.638-1.633,0.957-2.623,0.957c-1.058,0-1.931-0.348-2.619-1.044
			c-0.688-0.695-1.033-1.497-1.033-2.405c0-0.777,0.229-1.435,0.688-1.971h-0.492V171.856z"/>
		<path fill="#D1D7E5" d="M359.08,171.03c-1.082,0-1.97-0.357-2.663-1.072s-1.04-1.587-1.04-2.615c0-1.01,0.342-1.877,1.025-2.602
			s1.576-1.087,2.678-1.087s1.995,0.361,2.681,1.083c0.687,0.723,1.029,1.591,1.029,2.605c0,1.043-0.348,1.919-1.044,2.626
			C361.051,170.676,360.162,171.03,359.08,171.03z M359.076,169.574c0.692,0,1.26-0.216,1.702-0.648s0.664-0.96,0.664-1.583
			c0-0.633-0.224-1.163-0.671-1.591s-1.013-0.642-1.695-0.642c-0.688,0-1.253,0.218-1.698,0.652s-0.667,0.961-0.667,1.58
			c0,0.647,0.227,1.181,0.682,1.601C357.847,169.364,358.408,169.574,359.076,169.574z"/>
		<path fill="#D1D7E5" d="M361.362,161.741h-4.564v1.166h-1.225v-2.543h0.884c-0.662-0.829-0.993-1.642-0.993-2.438
			c0-0.801,0.365-1.353,1.095-1.656c-0.729-0.913-1.095-1.764-1.095-2.551c0-0.454,0.101-0.827,0.301-1.119
			c0.201-0.293,0.454-0.489,0.761-0.591c0.308-0.102,0.76-0.152,1.359-0.152h3.478v-1.225h1.225v2.602h-4.456
			c-0.406,0-0.692,0.018-0.858,0.055c-0.167,0.036-0.305,0.128-0.413,0.275c-0.109,0.146-0.163,0.324-0.163,0.532
			c0,0.589,0.302,1.258,0.905,2.007h3.761V154.9h1.225v2.58H358c-0.459,0-0.791,0.066-0.996,0.198
			c-0.205,0.133-0.308,0.358-0.308,0.676c0,0.521,0.302,1.19,0.905,2.01h3.761v-1.231h1.225v3.861h-1.225V161.741z"/>
	</g>
</g>
<g id="design__x2B__motion" opacity="0.6392">
	<g>
		<path fill="#FFFFFF" d="M244.712,193.859v1.205h-2.597v-1.013c-0.675,0.751-1.497,1.127-2.468,1.127
			c-0.898,0-1.688-0.307-2.367-0.92c-0.681-0.613-1.021-1.486-1.021-2.618c0-1.136,0.35-2.032,1.049-2.688s1.488-0.984,2.368-0.984
			c0.932,0,1.744,0.371,2.438,1.113v-2.732h-1.326v-1.205h2.682v8.716H244.712z M237.708,191.605c0,0.761,0.215,1.346,0.646,1.755
			c0.43,0.408,0.944,0.613,1.544,0.613c0.58,0,1.095-0.216,1.544-0.646c0.449-0.431,0.674-1.026,0.674-1.787
			c0-0.766-0.229-1.343-0.688-1.732c-0.458-0.391-0.973-0.585-1.544-0.585c-0.613,0-1.129,0.229-1.547,0.688
			C237.917,190.37,237.708,190.934,237.708,191.605z"/>
		<path fill="#FFFFFF" d="M252.286,191.955h-5.806c0.086,0.637,0.338,1.153,0.756,1.548c0.419,0.395,0.953,0.592,1.604,0.592
			c0.946,0,1.695-0.381,2.247-1.142l1.198,0.528c-0.39,0.604-0.896,1.052-1.52,1.344c-0.623,0.293-1.274,0.438-1.954,0.438
			c-1.056,0-1.957-0.329-2.706-0.987s-1.124-1.547-1.124-2.664c0-1.06,0.365-1.933,1.095-2.617c0.73-0.685,1.568-1.027,2.515-1.027
			c0.927,0,1.768,0.334,2.521,1.002C251.866,189.637,252.258,190.632,252.286,191.955z M250.889,190.97
			c-0.096-0.485-0.348-0.924-0.757-1.316c-0.408-0.392-0.91-0.588-1.505-0.588c-0.542,0-1.005,0.177-1.391,0.531
			c-0.385,0.354-0.62,0.813-0.706,1.373H250.889z"/>
		<path fill="#FFFFFF" d="M253.135,195.064v-2.368h1.213v0.229c0.043,0.323,0.218,0.59,0.524,0.799s0.669,0.313,1.088,0.313
			c0.437,0,0.786-0.075,1.048-0.228s0.393-0.364,0.393-0.635c0-0.262-0.108-0.454-0.324-0.578c-0.217-0.123-0.646-0.237-1.288-0.341
			c-0.951-0.161-1.63-0.421-2.036-0.78s-0.609-0.824-0.609-1.396c0-0.575,0.221-1.057,0.663-1.444
			c0.442-0.389,1.024-0.582,1.747-0.582c0.651,0,1.213,0.134,1.684,0.402v-0.296h1.205v2.29h-1.205v-0.421
			c-0.366-0.565-0.898-0.849-1.598-0.849c-0.356,0-0.65,0.077-0.881,0.231s-0.346,0.36-0.346,0.617c0,0.262,0.105,0.441,0.317,0.538
			c0.211,0.098,0.667,0.201,1.365,0.31c0.671,0.104,1.177,0.227,1.52,0.367c0.343,0.14,0.626,0.373,0.853,0.699
			c0.226,0.325,0.339,0.705,0.339,1.138c0,0.642-0.246,1.152-0.738,1.53s-1.131,0.567-1.915,0.567c-0.737,0-1.339-0.168-1.805-0.502
			v0.388H253.135z"/>
		<path fill="#FFFFFF" d="M260.481,193.859v-4.493h-1.07v-1.206h2.425v5.699h1.07v1.205h-3.495v-1.205H260.481z M260.289,185.814
			c0-0.219,0.077-0.409,0.231-0.571c0.154-0.161,0.351-0.242,0.588-0.242c0.224,0,0.416,0.078,0.578,0.235s0.242,0.35,0.242,0.578
			c0,0.228-0.08,0.422-0.242,0.581s-0.354,0.239-0.578,0.239c-0.228,0-0.422-0.081-0.581-0.243
			C260.368,186.23,260.289,186.038,260.289,185.814z"/>
		<path fill="#FFFFFF" d="M271.871,188.16v1.206h-1.241v5.142c0,0.694-0.035,1.209-0.106,1.544
			c-0.071,0.336-0.244,0.678-0.518,1.027s-0.684,0.644-1.229,0.881c-0.547,0.238-1.158,0.356-1.833,0.356
			c-1.018,0-1.926-0.307-2.725-0.92l0.884-0.984c0.6,0.466,1.251,0.699,1.954,0.699c0.391,0,0.752-0.075,1.085-0.225
			c0.332-0.149,0.581-0.332,0.745-0.546s0.27-0.417,0.317-0.609c0.047-0.192,0.071-0.518,0.071-0.974v-0.628
			c-0.214,0.271-0.55,0.528-1.006,0.771s-0.956,0.363-1.498,0.363c-0.988,0-1.795-0.342-2.417-1.026
			c-0.623-0.685-0.935-1.526-0.935-2.525c0-1.093,0.344-1.977,1.03-2.649c0.688-0.673,1.482-1.009,2.386-1.009
			c0.913,0,1.726,0.363,2.439,1.091v-0.984H271.871z M264.86,191.683c0,0.699,0.203,1.27,0.61,1.712
			c0.406,0.442,0.926,0.663,1.558,0.663c0.618,0,1.15-0.222,1.598-0.667c0.447-0.444,0.671-1.016,0.671-1.715
			c0-0.708-0.224-1.277-0.671-1.708s-0.965-0.646-1.555-0.646s-1.105,0.213-1.548,0.639
			C265.081,190.386,264.86,190.96,264.86,191.683z"/>
		<path fill="#FFFFFF" d="M274.703,188.16v0.835c0.87-0.628,1.664-0.941,2.382-0.941c0.447,0,0.816,0.105,1.109,0.317
			c0.292,0.212,0.483,0.471,0.574,0.777c0.09,0.307,0.135,0.755,0.135,1.345v3.366h1.163v1.205h-2.518v-4.515
			c0-0.522-0.079-0.864-0.235-1.023c-0.157-0.159-0.35-0.239-0.578-0.239c-0.599,0-1.276,0.293-2.032,0.878v3.694h1.19v1.205h-3.758
			v-1.205h1.212v-4.493h-1.212v-1.206H274.703z"/>
		<path fill="#FFFFFF" d="M282.8,190.601h2.704v-2.705h0.905v2.705h2.705v0.905h-2.705v2.704h-0.905v-2.704H282.8V190.601z"/>
		<path fill="#FFFFFF" d="M293.758,193.859v-4.493h-1.148v-1.206h2.503v0.87c0.816-0.651,1.616-0.977,2.399-0.977
			c0.788,0,1.331,0.359,1.631,1.077c0.898-0.718,1.735-1.077,2.511-1.077c0.446,0,0.813,0.099,1.102,0.296
			c0.287,0.197,0.481,0.447,0.581,0.749s0.149,0.748,0.149,1.337v3.424h1.206v1.205h-2.561v-4.386c0-0.399-0.018-0.682-0.054-0.846
			c-0.035-0.164-0.126-0.3-0.271-0.406c-0.146-0.107-0.32-0.161-0.524-0.161c-0.58,0-1.239,0.298-1.976,0.892v3.702h1.184v1.205
			h-2.539v-4.515c0-0.451-0.065-0.778-0.195-0.98c-0.131-0.202-0.353-0.304-0.665-0.304c-0.513,0-1.172,0.298-1.979,0.892v3.702
			h1.213v1.205h-3.802v-1.205H293.758z"/>
		<path fill="#FFFFFF" d="M305.042,191.612c0-1.064,0.352-1.938,1.056-2.621c0.703-0.682,1.562-1.023,2.574-1.023
			c0.994,0,1.848,0.337,2.561,1.01s1.069,1.551,1.069,2.635s-0.355,1.964-1.065,2.639c-0.711,0.676-1.566,1.013-2.564,1.013
			c-1.027,0-1.889-0.342-2.585-1.026C305.39,193.552,305.042,192.677,305.042,191.612z M306.476,191.609
			c0,0.681,0.212,1.239,0.638,1.675s0.945,0.653,1.559,0.653c0.623,0,1.145-0.22,1.565-0.66s0.631-0.996,0.631-1.668
			c0-0.677-0.214-1.234-0.642-1.672c-0.428-0.438-0.946-0.657-1.555-0.657c-0.638,0-1.162,0.224-1.576,0.671
			S306.476,190.951,306.476,191.609z"/>
		<path fill="#FFFFFF" d="M313.008,189.366v-1.206h0.898v-1.063l1.355-1.24v2.303h1.276v1.206h-1.276v3.352
			c0,0.537,0.029,0.869,0.089,0.995s0.208,0.189,0.445,0.189c0.252,0,0.5-0.048,0.742-0.143v1.233
			c-0.348,0.124-0.694,0.186-1.041,0.186c-0.414,0-0.749-0.092-1.006-0.274c-0.257-0.184-0.419-0.413-0.485-0.688
			s-0.1-0.751-0.1-1.427v-3.423H313.008z"/>
		<path fill="#FFFFFF" d="M318.229,193.859v-4.493h-1.07v-1.206h2.425v5.699h1.07v1.205h-3.495v-1.205H318.229z M318.037,185.814
			c0-0.219,0.077-0.409,0.231-0.571c0.154-0.161,0.351-0.242,0.588-0.242c0.224,0,0.416,0.078,0.578,0.235s0.242,0.35,0.242,0.578
			c0,0.228-0.08,0.422-0.242,0.581s-0.354,0.239-0.578,0.239c-0.228,0-0.422-0.081-0.581-0.243
			C318.116,186.23,318.037,186.038,318.037,185.814z"/>
		<path fill="#FFFFFF" d="M321.211,191.612c0-1.064,0.352-1.938,1.056-2.621c0.703-0.682,1.562-1.023,2.574-1.023
			c0.994,0,1.848,0.337,2.561,1.01s1.069,1.551,1.069,2.635s-0.355,1.964-1.065,2.639c-0.711,0.676-1.566,1.013-2.564,1.013
			c-1.027,0-1.889-0.342-2.585-1.026C321.559,193.552,321.211,192.677,321.211,191.612z M322.645,191.609
			c0,0.681,0.212,1.239,0.638,1.675s0.945,0.653,1.559,0.653c0.623,0,1.145-0.22,1.565-0.66s0.631-0.996,0.631-1.668
			c0-0.677-0.214-1.234-0.642-1.672c-0.428-0.438-0.946-0.657-1.555-0.657c-0.638,0-1.162,0.224-1.576,0.671
			S322.645,190.951,322.645,191.609z"/>
		<path fill="#FFFFFF" d="M331.695,188.16v0.835c0.87-0.628,1.664-0.941,2.382-0.941c0.447,0,0.816,0.105,1.109,0.317
			c0.292,0.212,0.483,0.471,0.574,0.777c0.09,0.307,0.135,0.755,0.135,1.345v3.366h1.163v1.205h-2.518v-4.515
			c0-0.522-0.079-0.864-0.235-1.023c-0.157-0.159-0.35-0.239-0.578-0.239c-0.599,0-1.276,0.293-2.032,0.878v3.694h1.19v1.205h-3.758
			v-1.205h1.212v-4.493h-1.212v-1.206H331.695z"/>
	</g>
</g>
<g id="illogical_1_" enable-background="new    ">
	<g id="illogical">
		<g>
			<path fill-rule="evenodd" clip-rule="evenodd" fill="#ACE0EE" d="M66.041,100.9c1.536,0,2.859-0.547,3.971-1.642
				c1.11-1.095,1.667-2.427,1.667-3.996c0-1.569-0.556-2.892-1.667-3.971c-1.112-1.078-2.436-1.618-3.971-1.618
				c-1.635,0-2.983,0.557-4.045,1.667c-1.063,1.112-1.594,2.419-1.594,3.922c0,1.537,0.547,2.861,1.643,3.972
				C63.139,100.346,64.471,100.9,66.041,100.9z M71.041,150.565v-39.173H54.372v8.286h7.354v30.887h-7.354v8.285h24.022v-8.285
				H71.041z"/>
		</g>
	</g>
</g>
<g id="illogical_copy_1_" enable-background="new    ">
	<g id="illogical_copy">
		<g>
			<path fill-rule="evenodd" clip-rule="evenodd" fill="#99A8D1" d="M98.045,90.654H80.298v8.286h8.433v51.625h-8.433v8.285h25.004
				v-8.285h-7.256V90.654z M124.749,90.654h-17.748v8.286h8.433v51.625h-8.433v8.285h25.004v-8.285h-7.256V90.654z M171.379,117.006
				c-4.903-4.625-10.771-6.937-17.601-6.937c-6.962,0-12.862,2.345-17.699,7.035c-4.837,4.69-7.256,10.696-7.256,18.017
				s2.394,13.335,7.183,18.042c4.788,4.706,10.712,7.06,17.772,7.06c6.864,0,12.739-2.32,17.625-6.962
				c4.885-4.641,7.33-10.688,7.33-18.14S176.282,121.631,171.379,117.006z M164.54,146.565c-2.893,3.026-6.48,4.539-10.761,4.539
				c-4.216,0-7.788-1.497-10.712-4.49c-2.925-2.994-4.388-6.832-4.388-11.517c0-4.521,1.422-8.319,4.265-11.394
				s6.455-4.614,10.835-4.614c4.183,0,7.746,1.506,10.688,4.515c2.942,3.011,4.413,6.841,4.413,11.493
				C168.878,139.716,167.433,143.539,164.54,146.565z M231.015,111.308l-9.315,0.084v6.766c-4.903-5-10.492-7.501-16.768-7.501
				c-6.21,0-11.677,2.313-16.399,6.938c-4.724,4.625-7.084,10.696-7.084,18.213c0,6.863,2.14,12.648,6.422,17.355
				c4.282,4.706,9.822,7.06,16.621,7.06c3.726,0,7.158-0.833,10.295-2.5s5.442-3.432,6.913-5.295v4.313
				c0,3.139-0.164,12.973-0.49,14.297c-0.327,1.323-1.054,2.721-2.182,4.191s-2.836,2.721-5.124,3.751
				c-2.288,1.028-4.772,1.543-7.452,1.543c-4.837,0-9.315-1.601-13.434-4.804l-6.079,6.766c5.491,4.217,11.734,6.324,18.729,6.324
				c4.64,0,8.84-0.817,12.599-2.451c3.759-1.635,8.37-5.254,9.795-7.951c1.627-3.082,2.955-9.475,2.955-13.845
				c0-2.355-0.002-4.765-0.002-9.536V111.308z M217.237,147.354c-3.072,3.056-6.733,4.584-10.981,4.584
				c-4.348,0-7.918-1.521-10.713-4.56c-2.794-3.04-4.191-6.963-4.191-11.767c0-4.968,1.52-8.915,4.559-11.84
				c3.04-2.924,6.586-4.388,10.639-4.388c4.052,0,7.615,1.479,10.688,4.437c3.072,2.958,4.608,6.873,4.608,11.743
				C221.846,140.367,220.31,144.298,217.237,147.354z M237.59,100.9c1.536,0,2.86-0.547,3.972-1.642
				c1.11-1.095,1.667-2.427,1.667-3.996c0-1.569-0.557-2.892-1.667-3.971c-1.111-1.078-2.436-1.618-3.972-1.618
				c-1.635,0-2.982,0.557-4.045,1.667c-1.062,1.112-1.593,2.419-1.593,3.922c0,1.537,0.547,2.861,1.643,3.972
				C234.689,100.346,236.021,100.9,237.59,100.9z M242.591,111.392h-9.417l0.01,47.458h12.563v-8.285h-3.156V111.392z
				 M269.146,151.742c-4.707,0-8.303-1.708-10.786-5.123c-2.484-3.415-3.726-7.361-3.726-11.841c0-4.804,1.307-8.685,3.922-11.644
				c2.614-2.958,6.014-4.437,10.197-4.437c3.138,0,5.892,0.916,8.262,2.746c2.369,1.831,3.767,4.461,4.191,7.894h8.335v-17.944
				h-8.335v3.334c-3.628-3.104-8.073-4.657-13.336-4.657c-6.145,0-11.57,2.329-16.276,6.985c-4.706,4.658-7.061,10.566-7.061,17.723
				c0,6.701,2.158,12.618,6.473,17.748c4.313,5.132,10.229,7.697,17.747,7.697c10.622,0,18.059-4.722,22.308-14.168l-7.697-3.629
				C280.422,148.636,275.683,151.742,269.146,151.742z M332.078,128.601c0-3.856-0.221-6.668-0.662-8.433
				c-0.441-1.765-1.299-3.408-2.573-4.927c-1.275-1.521-3.212-2.763-5.811-3.727c-2.598-0.963-5.679-1.446-9.241-1.446
				c-9.707,0-16.539,3.694-20.493,11.08l8.923,2.353c2.091-3.726,5.474-5.589,10.148-5.589c2.713,0,4.91,0.523,6.594,1.569
				c1.684,1.047,2.753,2.224,3.212,3.53c0.457,1.307,0.686,3.17,0.686,5.589v4.706c-4.15-2.679-8.449-4.02-12.894-4.02
				c-4.772,0-8.85,1.455-12.232,4.363c-3.383,2.909-5.074,6.57-5.074,10.982c0,4.379,1.594,7.975,4.78,10.786
				c3.187,2.811,6.938,4.216,11.252,4.216c5.557,0,10.59-2.189,15.1-6.569v5.784h11.309v-8.285h-3.022V128.601z M322.86,146.742
				c-4.02,3.791-8.285,5.687-12.795,5.687c-2.616,0-4.683-0.752-6.202-2.256c-1.521-1.503-2.28-3.365-2.28-5.589
				c0-2.386,0.865-4.33,2.599-5.834c1.732-1.503,3.89-2.255,6.472-2.255c4.118,0,8.188,1.568,12.207,4.706V146.742z
				 M345.843,150.565V90.654h-17.748v8.286h8.433l0.128,59.91h16.443v-8.285H345.843z"/>
		</g>
	</g>
</g>
</svg>
