<?xml version="1.0" encoding="utf-8"?>
<!-- Generator: Adobe Illustrator 15.0.0, SVG Export Plug-In . SVG Version: 6.00 Build 0)  -->
<!DOCTYPE svg PUBLIC "-//W3C//DTD SVG 1.1//EN" "http://www.w3.org/Graphics/SVG/1.1/DTD/svg11.dtd">
<svg version="1.1" id="Layer_1" xmlns="http://www.w3.org/2000/svg" xmlns:xlink="http://www.w3.org/1999/xlink" x="0px" y="0px"
	 width="417.947px" height="182.417px" viewBox="0 16.817 417.947 182.417" enable-background="new 0 16.817 417.947 182.417"
	 xml:space="preserve">
<g id="cloud_1_" enable-background="new    ">
	<g id="cloud">
		<g>
			<path fill="#120F16" d="M23.304,170.734c-2.949,6.438-4.606,13.59-4.606,21.133c0,2.651,0.205,5.256,0.596,7.799h366.439
				c15.62-9.816,26.012-27.191,26.012-47.002c0-30.309-24.306-54.924-54.485-55.458c-5.104-26.731-28.591-46.94-56.81-46.94
				c-12.465,0-23.997,3.955-33.441,10.66c-8.208-24.907-31.648-42.892-59.305-42.892c-24.513,0-45.715,14.132-55.936,34.687
				c-8.329-4.436-17.832-6.958-27.927-6.958c-24.012,0-44.687,14.229-54.094,34.707c-3.47-0.72-7.065-1.101-10.749-1.101
				c-29.083,0-52.661,23.577-52.661,52.661C6.338,147.335,12.875,161.113,23.304,170.734z"/>
		</g>
	</g>
</g>
<g id="Thinker">
	<g>
		<path fill="#D1D7E5" d="M239.942,179.427v-14.818h-4.076v5.045h-2.444v-7.518h16.013v7.518h-2.443v-5.045h-4.063v14.818h2.572
			v2.473h-8.085v-2.473H239.942z"/>
		<path fill="#D1D7E5" d="M252.787,179.427v-14.818h-2.245v-2.473h7.559v2.473h-2.33v5.654h8.597v-5.654h-2.315v-2.473h7.559v2.473
			h-2.258v14.818h2.258v2.473h-7.559v-2.473h2.315v-6.691h-8.597v6.691h2.33v2.473h-7.559v-2.473H252.787z"/>
		<path fill="#D1D7E5" d="M273.418,179.427v-14.818h-2.131v-2.473h7.246v2.473h-2.132v14.818h2.132v2.473h-7.246v-2.473H273.418z"/>
		<path fill="#D1D7E5" d="M282.438,179.427v-14.818h-2.828v-2.473h6.748l8.668,15.361v-12.89h-2.799v-2.474h8.112v2.474h-2.912
			v17.49h-3.063l-9.483-16.869v14.196h2.827v2.474h-8.099v-2.474h2.828V179.427z"/>
		<path fill="#D1D7E5" d="M303.396,179.427v-14.818h-2.474v-2.473h7.999v2.473h-2.543v14.818h2.273v2.473h-7.729v-2.473H303.396z
			 M306.479,171.464l6.338-6.855h-2.26v-2.473h7.743v2.473h-2.104l-6.084,6.855l6.255,7.963h2.117v2.473h-8.027v-2.473h2.131
			L306.479,171.464z"/>
		<path fill="#D1D7E5" d="M321.938,179.427v-14.818h-2.558v-2.473h16.424v5.953h-2.442v-3.48h-8.439v5.883h7.346v2.473h-7.346v6.463
			h8.439v-3.594h2.442v6.066H319.38v-2.473H321.938z"/>
		<path fill="#D1D7E5" d="M339.854,179.427v-14.818h-2.714v-2.473h8.027c1.677,0,3.008,0.131,3.993,0.391
			c0.984,0.262,1.799,0.811,2.443,1.648c0.645,0.839,0.966,1.883,0.966,3.133c0,2.613-1.357,4.257-4.073,4.93l3.491,7.189h2.415
			v2.473h-4.28l-4.5-9.234h-2.785v6.762h2.529v2.474h-8.228v-2.474H339.854L339.854,179.427z M342.837,170.193h2.33
			c1.128,0,1.959-0.072,2.494-0.221c0.535-0.146,0.973-0.445,1.313-0.895c0.342-0.451,0.512-1.055,0.512-1.813
			c0-0.645-0.174-1.189-0.52-1.635c-0.346-0.444-0.771-0.728-1.277-0.846c-0.508-0.117-1.281-0.178-2.323-0.178h-2.529V170.193
			L342.837,170.193z"/>
	</g>
</g>
<g id="_x2E_com">
	<g>
		<path fill="#D1D7E5" d="M362.587,181.791h-1.782v-1.781h1.782V181.791z"/>
		<path fill="#D1D7E5" d="M355.573,171.856h2.65v1.231c-0.507,0.063-0.896,0.271-1.166,0.619c-0.271,0.352-0.405,0.758-0.405,1.221
			c0,0.619,0.219,1.121,0.655,1.509c0.438,0.388,1.012,0.579,1.722,0.579c0.662,0,1.245-0.184,1.75-0.551
			c0.505-0.366,0.757-0.898,0.757-1.594c0-0.967-0.459-1.666-1.377-2.103l0.536-1.138c1.396,0.629,2.095,1.728,2.095,3.297
			c0,1.111-0.38,1.984-1.138,2.623c-0.76,0.638-1.633,0.957-2.623,0.957c-1.059,0-1.932-0.348-2.619-1.045
			c-0.688-0.694-1.033-1.496-1.033-2.404c0-0.777,0.229-1.436,0.688-1.971h-0.492V171.856z"/>
		<path fill="#D1D7E5" d="M359.08,171.031c-1.082,0-1.97-0.357-2.663-1.072s-1.04-1.588-1.04-2.615c0-1.01,0.342-1.877,1.025-2.602
			c0.683-0.726,1.576-1.088,2.678-1.088s1.995,0.361,2.681,1.083c0.688,0.724,1.029,1.591,1.029,2.604
			c0,1.043-0.348,1.92-1.044,2.627C361.051,170.675,360.162,171.031,359.08,171.031z M359.076,169.574
			c0.691,0,1.26-0.216,1.702-0.648c0.441-0.432,0.664-0.959,0.664-1.582c0-0.633-0.225-1.163-0.671-1.592
			c-0.447-0.428-1.014-0.642-1.695-0.642c-0.688,0-1.253,0.218-1.698,0.651c-0.445,0.436-0.667,0.962-0.667,1.58
			c0,0.648,0.227,1.182,0.682,1.602C357.847,169.365,358.408,169.574,359.076,169.574z"/>
		<path fill="#D1D7E5" d="M361.362,161.742h-4.564v1.166h-1.225v-2.543h0.884c-0.662-0.83-0.993-1.643-0.993-2.439
			c0-0.801,0.365-1.352,1.095-1.655c-0.729-0.913-1.095-1.765-1.095-2.552c0-0.453,0.101-0.826,0.301-1.118
			c0.201-0.293,0.454-0.489,0.762-0.591s0.76-0.152,1.358-0.152h3.479v-1.225h1.225v2.602h-4.456c-0.406,0-0.692,0.018-0.858,0.055
			s-0.305,0.129-0.412,0.275c-0.109,0.146-0.163,0.324-0.163,0.531c0,0.59,0.302,1.259,0.905,2.008h3.761V154.9h1.225v2.58H358
			c-0.459,0-0.791,0.066-0.996,0.197c-0.205,0.134-0.308,0.359-0.308,0.677c0,0.521,0.302,1.19,0.904,2.011h3.762v-1.232h1.225
			v3.861h-1.225V161.742L361.362,161.742z"/>
	</g>
</g>
<g id="design__x2B__motion" opacity="0.6392">
	<g>
		<path fill="#FFFFFF" d="M244.712,193.859v1.205h-2.597v-1.014c-0.675,0.752-1.497,1.127-2.468,1.127
			c-0.898,0-1.688-0.307-2.367-0.92c-0.682-0.612-1.021-1.485-1.021-2.617c0-1.137,0.35-2.032,1.049-2.688
			c0.699-0.656,1.488-0.984,2.368-0.984c0.933,0,1.744,0.371,2.438,1.113v-2.732h-1.326v-1.205h2.682v8.716L244.712,193.859
			L244.712,193.859z M237.708,191.605c0,0.762,0.215,1.346,0.646,1.755c0.43,0.408,0.943,0.613,1.543,0.613
			c0.58,0,1.096-0.216,1.545-0.646c0.449-0.432,0.674-1.027,0.674-1.787c0-0.767-0.229-1.344-0.688-1.732
			c-0.458-0.391-0.973-0.585-1.544-0.585c-0.613,0-1.129,0.229-1.547,0.688C237.917,190.371,237.708,190.934,237.708,191.605z"/>
		<path fill="#FFFFFF" d="M252.286,191.955h-5.807c0.086,0.637,0.338,1.153,0.756,1.549c0.42,0.395,0.953,0.592,1.604,0.592
			c0.946,0,1.695-0.381,2.247-1.143l1.198,0.528c-0.39,0.604-0.896,1.052-1.521,1.345c-0.623,0.293-1.273,0.438-1.953,0.438
			c-1.057,0-1.957-0.329-2.707-0.987c-0.748-0.657-1.123-1.547-1.123-2.663c0-1.061,0.365-1.934,1.095-2.617
			c0.729-0.686,1.567-1.027,2.515-1.027c0.928,0,1.768,0.334,2.521,1.002C251.866,189.636,252.258,190.632,252.286,191.955z
			 M250.89,190.97c-0.097-0.485-0.349-0.924-0.758-1.316c-0.408-0.393-0.91-0.588-1.505-0.588c-0.542,0-1.005,0.178-1.392,0.531
			c-0.385,0.354-0.619,0.813-0.705,1.373H250.89z"/>
		<path fill="#FFFFFF" d="M253.135,195.064v-2.367h1.214v0.229c0.043,0.322,0.217,0.59,0.523,0.799
			c0.306,0.209,0.669,0.313,1.088,0.313c0.438,0,0.786-0.074,1.048-0.228c0.263-0.153,0.394-0.364,0.394-0.636
			c0-0.262-0.108-0.453-0.324-0.578c-0.217-0.122-0.646-0.236-1.288-0.34c-0.951-0.162-1.63-0.422-2.036-0.78
			s-0.609-0.824-0.609-1.396c0-0.576,0.222-1.058,0.664-1.445c0.441-0.389,1.023-0.582,1.746-0.582c0.651,0,1.213,0.135,1.685,0.402
			v-0.295h1.204v2.289h-1.204v-0.421c-0.366-0.565-0.898-0.849-1.599-0.849c-0.355,0-0.649,0.076-0.881,0.23
			c-0.23,0.154-0.346,0.36-0.346,0.617c0,0.262,0.105,0.441,0.316,0.538c0.211,0.099,0.668,0.201,1.365,0.31
			c0.672,0.104,1.178,0.228,1.521,0.367c0.343,0.141,0.626,0.373,0.853,0.699c0.227,0.325,0.34,0.705,0.34,1.139
			c0,0.641-0.246,1.151-0.738,1.529c-0.492,0.379-1.131,0.566-1.916,0.566c-0.736,0-1.338-0.168-1.805-0.502v0.389h-1.214V195.064z"
			/>
		<path fill="#FFFFFF" d="M260.481,193.859v-4.492h-1.07v-1.207h2.425v5.699h1.07v1.205h-3.495v-1.205H260.481z M260.289,185.814
			c0-0.219,0.077-0.408,0.231-0.57c0.153-0.162,0.351-0.242,0.588-0.242c0.224,0,0.416,0.078,0.578,0.234
			c0.162,0.157,0.241,0.35,0.241,0.578s-0.079,0.422-0.241,0.581s-0.354,0.239-0.578,0.239c-0.229,0-0.422-0.082-0.582-0.243
			C260.368,186.23,260.289,186.039,260.289,185.814z"/>
		<path fill="#FFFFFF" d="M271.871,188.16v1.207h-1.241v5.141c0,0.695-0.035,1.209-0.105,1.545
			c-0.071,0.336-0.244,0.678-0.519,1.027c-0.274,0.348-0.684,0.644-1.229,0.881c-0.547,0.238-1.157,0.355-1.832,0.355
			c-1.019,0-1.926-0.307-2.726-0.92l0.884-0.984c0.601,0.467,1.252,0.699,1.955,0.699c0.391,0,0.752-0.074,1.084-0.225
			c0.332-0.148,0.582-0.332,0.745-0.547c0.164-0.213,0.271-0.416,0.317-0.608s0.07-0.519,0.07-0.974v-0.629
			c-0.213,0.271-0.549,0.529-1.006,0.771c-0.455,0.243-0.955,0.363-1.498,0.363c-0.987,0-1.795-0.342-2.416-1.025
			c-0.623-0.686-0.936-1.527-0.936-2.525c0-1.094,0.344-1.978,1.03-2.649c0.688-0.673,1.481-1.009,2.386-1.009
			c0.913,0,1.727,0.363,2.439,1.091v-0.983h2.597V188.16z M264.86,191.683c0,0.699,0.203,1.27,0.609,1.712s0.926,0.663,1.559,0.663
			c0.617,0,1.149-0.223,1.598-0.667c0.447-0.444,0.671-1.017,0.671-1.716c0-0.707-0.224-1.276-0.671-1.707
			c-0.447-0.432-0.965-0.646-1.555-0.646s-1.105,0.213-1.549,0.639C265.081,190.386,264.86,190.96,264.86,191.683z"/>
		<path fill="#FFFFFF" d="M274.703,188.16v0.836c0.87-0.629,1.664-0.941,2.382-0.941c0.447,0,0.816,0.105,1.109,0.316
			c0.291,0.213,0.482,0.471,0.574,0.777c0.09,0.307,0.135,0.756,0.135,1.346v3.365h1.162v1.205h-2.518v-4.516
			c0-0.521-0.079-0.863-0.234-1.022c-0.157-0.159-0.351-0.239-0.578-0.239c-0.6,0-1.276,0.293-2.032,0.879v3.693h1.19v1.205h-3.759
			v-1.205h1.212v-4.492h-1.212v-1.207H274.703z"/>
		<path fill="#FFFFFF" d="M282.8,190.601h2.704v-2.705h0.905v2.705h2.705v0.904h-2.705v2.705h-0.905v-2.705H282.8V190.601z"/>
		<path fill="#FFFFFF" d="M293.758,193.859v-4.492h-1.147v-1.207h2.502v0.871c0.816-0.652,1.617-0.979,2.399-0.979
			c0.788,0,1.331,0.359,1.631,1.078c0.898-0.719,1.735-1.078,2.512-1.078c0.445,0,0.813,0.1,1.102,0.297
			c0.287,0.197,0.481,0.447,0.581,0.749s0.149,0.747,0.149,1.337v3.424h1.205v1.205h-2.561v-4.387c0-0.398-0.018-0.682-0.054-0.846
			c-0.035-0.164-0.126-0.299-0.271-0.406c-0.146-0.106-0.319-0.16-0.523-0.16c-0.58,0-1.239,0.298-1.977,0.893v3.701h1.185v1.205
			h-2.539v-4.516c0-0.45-0.065-0.777-0.195-0.979c-0.131-0.202-0.353-0.304-0.665-0.304c-0.513,0-1.172,0.298-1.979,0.893v3.701
			h1.213v1.205h-3.803v-1.205H293.758z"/>
		<path fill="#FFFFFF" d="M305.042,191.613c0-1.064,0.352-1.939,1.056-2.621c0.703-0.683,1.563-1.023,2.574-1.023
			c0.994,0,1.848,0.337,2.562,1.01c0.713,0.673,1.068,1.551,1.068,2.635s-0.354,1.965-1.064,2.639
			c-0.711,0.676-1.566,1.014-2.564,1.014c-1.026,0-1.889-0.342-2.585-1.025C305.39,193.552,305.042,192.677,305.042,191.613z
			 M306.476,191.609c0,0.682,0.212,1.239,0.639,1.676c0.426,0.436,0.944,0.652,1.559,0.652c0.623,0,1.146-0.221,1.565-0.66
			s0.631-0.996,0.631-1.668c0-0.677-0.214-1.234-0.643-1.672c-0.428-0.438-0.945-0.656-1.555-0.656c-0.638,0-1.162,0.223-1.576,0.67
			S306.476,190.951,306.476,191.609z"/>
		<path fill="#FFFFFF" d="M313.008,189.367v-1.207h0.898v-1.063l1.354-1.24v2.303h1.276v1.207h-1.276v3.352
			c0,0.537,0.029,0.869,0.089,0.994c0.061,0.127,0.208,0.189,0.445,0.189c0.252,0,0.5-0.048,0.742-0.143v1.232
			c-0.348,0.125-0.694,0.186-1.041,0.186c-0.414,0-0.749-0.092-1.006-0.273c-0.257-0.184-0.419-0.412-0.485-0.688
			c-0.065-0.275-0.1-0.752-0.1-1.428v-3.422H313.008z"/>
		<path fill="#FFFFFF" d="M318.229,193.859v-4.492h-1.069v-1.207h2.425v5.699h1.07v1.205h-3.495v-1.205H318.229z M318.037,185.814
			c0-0.219,0.077-0.408,0.23-0.57c0.154-0.162,0.352-0.242,0.588-0.242c0.225,0,0.416,0.078,0.578,0.234
			c0.162,0.157,0.242,0.35,0.242,0.578s-0.08,0.422-0.242,0.581s-0.354,0.239-0.578,0.239c-0.228,0-0.422-0.082-0.58-0.243
			C318.116,186.23,318.037,186.039,318.037,185.814z"/>
		<path fill="#FFFFFF" d="M321.211,191.613c0-1.064,0.352-1.939,1.056-2.621c0.703-0.683,1.563-1.023,2.574-1.023
			c0.994,0,1.849,0.337,2.562,1.01s1.068,1.551,1.068,2.635s-0.354,1.965-1.064,2.639c-0.711,0.676-1.566,1.014-2.564,1.014
			c-1.027,0-1.889-0.342-2.585-1.025C321.559,193.552,321.211,192.677,321.211,191.613z M322.645,191.609
			c0,0.682,0.213,1.239,0.639,1.676c0.426,0.436,0.945,0.652,1.559,0.652c0.623,0,1.146-0.221,1.565-0.66s0.631-0.996,0.631-1.668
			c0-0.677-0.214-1.234-0.642-1.672c-0.429-0.438-0.946-0.656-1.556-0.656c-0.638,0-1.162,0.223-1.576,0.67
			C322.852,190.398,322.645,190.951,322.645,191.609z"/>
		<path fill="#FFFFFF" d="M331.695,188.16v0.836c0.869-0.629,1.664-0.941,2.382-0.941c0.446,0,0.815,0.105,1.108,0.316
			c0.293,0.213,0.483,0.471,0.574,0.777c0.09,0.307,0.135,0.756,0.135,1.346v3.365h1.163v1.205h-2.518v-4.516
			c0-0.521-0.079-0.863-0.235-1.022s-0.35-0.239-0.578-0.239c-0.599,0-1.275,0.293-2.031,0.879v3.693h1.189v1.205h-3.758v-1.205
			h1.212v-4.492h-1.212v-1.207H331.695z"/>
	</g>
</g>
<g id="illogical_1_" enable-background="new    ">
	<g id="illogical">
		<g>
			<path fill="#ACE0EE" d="M66.041,100.9c1.536,0,2.859-0.547,3.971-1.642c1.11-1.095,1.667-2.427,1.667-3.996
				c0-1.569-0.556-2.892-1.667-3.971c-1.112-1.078-2.436-1.618-3.971-1.618c-1.635,0-2.983,0.557-4.045,1.667
				c-1.063,1.112-1.594,2.419-1.594,3.922c0,1.537,0.547,2.861,1.643,3.972C63.139,100.346,64.471,100.9,66.041,100.9z
				 M71.041,150.565v-39.173H54.372v8.286h7.354v30.887h-7.354v8.285h24.022v-8.285H71.041z"/>
		</g>
	</g>
</g>
<g id="illogical_copy_1_" enable-background="new    ">
	<g id="illogical_copy">
		<g>
			<path fill="#99A8D1" d="M98.045,90.654H80.298v8.286h8.433v51.625h-8.433v8.285h25.004v-8.285h-7.256L98.045,90.654
				L98.045,90.654z M124.749,90.654h-17.748v8.286h8.433v51.625h-8.433v8.285h25.004v-8.285h-7.256V90.654z M171.379,117.006
				c-4.903-4.625-10.771-6.937-17.601-6.937c-6.962,0-12.862,2.345-17.699,7.035s-7.256,10.696-7.256,18.017
				c0,7.321,2.394,13.336,7.183,18.043c4.788,4.705,10.712,7.06,17.772,7.06c6.864,0,12.739-2.32,17.625-6.962
				c4.885-4.641,7.33-10.688,7.33-18.141C178.733,127.669,176.282,121.631,171.379,117.006z M164.54,146.565
				c-2.893,3.026-6.48,4.539-10.761,4.539c-4.216,0-7.788-1.497-10.712-4.489c-2.925-2.994-4.388-6.832-4.388-11.518
				c0-4.521,1.422-8.319,4.265-11.394c2.843-3.075,6.455-4.614,10.835-4.614c4.183,0,7.746,1.506,10.688,4.515
				c2.942,3.011,4.413,6.841,4.413,11.493C168.878,139.716,167.433,143.539,164.54,146.565z M231.015,111.308l-9.314,0.084v6.766
				c-4.903-5-10.492-7.501-16.768-7.501c-6.21,0-11.677,2.313-16.399,6.938c-4.724,4.625-7.084,10.696-7.084,18.213
				c0,6.863,2.14,12.648,6.422,17.355c4.282,4.705,9.822,7.06,16.621,7.06c3.726,0,7.157-0.833,10.295-2.5
				c3.137-1.667,5.442-3.433,6.913-5.296v4.314c0,3.139-0.164,12.973-0.49,14.297c-0.327,1.322-1.054,2.721-2.182,4.19
				c-1.129,1.47-2.836,2.722-5.125,3.751c-2.287,1.027-4.771,1.543-7.451,1.543c-4.837,0-9.315-1.602-13.434-4.805l-6.079,6.767
				c5.491,4.218,11.734,6.324,18.729,6.324c4.64,0,8.84-0.817,12.599-2.451c3.76-1.635,8.37-5.254,9.795-7.95
				c1.627-3.082,2.955-9.476,2.955-13.846c0-2.355-0.002-4.766-0.002-9.536V111.308z M217.237,147.354
				c-3.072,3.056-6.733,4.584-10.981,4.584c-4.348,0-7.918-1.521-10.713-4.56c-2.794-3.041-4.191-6.963-4.191-11.768
				c0-4.968,1.52-8.915,4.559-11.84c3.04-2.924,6.586-4.388,10.639-4.388s7.615,1.479,10.688,4.438
				c3.071,2.958,4.608,6.873,4.608,11.743C221.847,140.367,220.31,144.298,217.237,147.354z M237.59,100.9
				c1.536,0,2.86-0.547,3.972-1.642c1.11-1.095,1.668-2.427,1.668-3.996c0-1.569-0.558-2.892-1.668-3.971
				c-1.11-1.078-2.436-1.618-3.972-1.618c-1.635,0-2.981,0.557-4.045,1.667c-1.062,1.112-1.593,2.419-1.593,3.922
				c0,1.537,0.547,2.861,1.643,3.972C234.688,100.346,236.021,100.9,237.59,100.9z M242.591,111.392h-9.417l0.011,47.458h12.563
				v-8.285h-3.156V111.392z M269.146,151.742c-4.707,0-8.303-1.707-10.785-5.123c-2.484-3.414-3.727-7.361-3.727-11.841
				c0-4.804,1.307-8.685,3.922-11.644c2.614-2.958,6.014-4.437,10.197-4.437c3.139,0,5.893,0.916,8.262,2.746
				c2.369,1.831,3.768,4.461,4.191,7.894h8.335v-17.944h-8.335v3.334c-3.628-3.104-8.073-4.657-13.336-4.657
				c-6.145,0-11.57,2.329-16.276,6.985c-4.706,4.658-7.061,10.566-7.061,17.724c0,6.7,2.157,12.617,6.473,17.747
				c4.313,5.132,10.229,7.697,17.747,7.697c10.622,0,18.059-4.722,22.309-14.168l-7.697-3.63
				C280.422,148.636,275.683,151.742,269.146,151.742z M332.078,128.601c0-3.856-0.221-6.668-0.662-8.433s-1.299-3.408-2.573-4.927
				c-1.274-1.521-3.212-2.763-5.811-3.727c-2.599-0.963-5.679-1.446-9.241-1.446c-9.707,0-16.539,3.694-20.493,11.08l8.923,2.353
				c2.092-3.726,5.475-5.589,10.148-5.589c2.713,0,4.91,0.523,6.594,1.569c1.684,1.047,2.753,2.224,3.212,3.53
				c0.457,1.307,0.687,3.17,0.687,5.589v4.706c-4.15-2.68-8.449-4.02-12.895-4.02c-4.771,0-8.85,1.456-12.231,4.363
				c-3.383,2.909-5.074,6.569-5.074,10.981c0,4.379,1.594,7.976,4.779,10.787c3.188,2.811,6.938,4.215,11.253,4.215
				c5.557,0,10.59-2.188,15.1-6.568v5.784h11.309v-8.285h-3.021v-21.962H332.078z M322.86,146.742
				c-4.021,3.791-8.285,5.688-12.796,5.688c-2.615,0-4.683-0.752-6.201-2.256c-1.521-1.504-2.28-3.365-2.28-5.59
				c0-2.385,0.865-4.33,2.599-5.834c1.732-1.502,3.891-2.254,6.473-2.254c4.117,0,8.188,1.567,12.207,4.705L322.86,146.742
				L322.86,146.742z M345.843,150.565V90.654h-17.748v8.286h8.434l0.128,59.91h16.442v-8.285H345.843z"/>
		</g>
	</g>
</g>
</svg>
